<svg width="118" height="52" viewBox="0 0 118 52" fill="none" xmlns="http://www.w3.org/2000/svg">
<g clip-path="url(#clip0_2429_5791)">
<path d="M48.1501 15.2714C47.9112 16.1497 47.6723 17.1078 47.3539 18.2257C47.115 19.2636 46.7169 20.4613 46.3984 21.8985H54.1216L54.5197 20.4613H50.6183L51.4145 17.5869H56.4305C57.5452 17.5869 58.2618 18.4652 57.9433 19.6628L57.386 21.8985L57.0675 23.0163C56.749 24.1341 55.6343 25.0922 54.44 25.0922H43.6117C42.497 25.0922 41.7805 24.214 42.0989 23.0163L44.4875 13.9939C44.806 12.8761 46.0003 11.918 47.115 11.918H59.5357L58.6599 15.1916C54.9974 15.2714 51.733 15.2714 48.1501 15.2714ZM93.7723 18.7846L88.8359 25.0922H84.5364L83.0236 18.7846L81.0331 25.0922H77.1317L81.272 11.9978H85.4918L87.8008 21.1799L95.0462 11.9978H99.2661L96.3998 25.0922H92.4984L93.7723 18.7846ZM104.601 17.1078C104.76 16.3892 104.839 15.99 105.078 15.2714H116.623L117.499 11.9978H104.203C103.008 11.9978 101.814 12.9559 101.495 14.1536C101.097 15.5908 100.699 17.1078 100.301 18.545C99.903 19.9822 99.5049 21.4993 99.1068 22.9365C98.7884 24.1341 99.5049 25.0922 100.699 25.0922H113.996L114.872 21.8186H103.327C103.456 21.1718 103.675 20.5489 103.804 19.9024H112.483L113.2 17.1078H104.601ZM69.1697 15.9102L70.2844 20.1419H65.8257L69.1697 15.9102ZM71.4787 25.0922H75.6986L72.3545 11.918H68.2143L57.7045 25.0922H61.9243L63.5963 23.0163H70.9214L71.4787 25.0922Z" fill="black"/>
<path d="M66.4627 36.1102C67.4182 36.1102 68.4532 35.2319 68.7717 34.0342C68.8513 33.7149 68.9309 33.3955 69.0106 32.9963C69.2494 31.9583 69.5679 30.7606 69.8068 29.8025C70.1252 28.6048 69.5679 27.7266 68.6125 27.7266H56.9083L56.1121 31.0002H66.0646L65.5869 32.8366H57.386C56.4306 32.8366 55.3955 33.7149 55.0771 34.9125C54.8382 35.9505 54.5993 36.9086 54.2809 37.9466C54.042 38.9846 53.7235 39.9427 53.4847 40.9807H56.9083C57.3487 39.3613 57.7419 37.7295 58.1822 36.1102H66.4627ZM83.4218 27.8863H73.4693C72.5138 27.8863 71.4788 28.8444 71.1603 30.042C70.7622 31.4792 70.4437 32.9963 70.0456 34.4335C69.6475 35.9505 69.329 37.3877 68.9309 38.8249C68.6921 40.0226 69.2494 40.9807 70.2049 40.9807H80.1574C81.1128 40.9807 82.1478 40.0226 82.4663 38.8249C82.8644 37.3877 83.1829 35.8707 83.581 34.4335C83.9791 32.9164 84.2976 31.4792 84.6957 30.042C85.0142 28.8444 84.4568 27.8863 83.4218 27.8863ZM80.5555 33.7947C80.3166 34.673 80.237 35.0722 79.5204 37.7071H72.5138C72.9119 36.2699 73.0712 35.4714 73.2304 34.9924C73.5489 33.9544 73.5489 33.7149 74.2655 31.08H81.272C80.8739 32.5971 80.6351 33.3157 80.5555 33.7947ZM97.2756 40.9807H93.852L92.8169 35.7908H88.6767C88.199 37.5474 87.7212 39.304 87.3231 41.0605H83.8995C84.4568 39.0644 84.9345 37.0683 85.4919 35.0722C85.8104 33.8746 86.7658 32.9963 87.8009 32.9963C89.1544 32.9963 90.5079 32.9963 91.9411 32.9963C93.2947 32.9963 94.6482 32.9963 96.0813 32.9963L96.5591 31.1599H86.6066L87.4028 27.8863H99.1069C99.9827 27.8863 100.62 28.7645 100.301 29.9622L99.3458 33.635C99.0273 34.8327 98.0718 35.711 97.0368 35.711H96.3998L97.2756 40.9807ZM52.0515 32.5971C53.0069 32.5971 53.5643 33.4753 53.2458 34.673C53.1662 34.9924 53.0866 35.3118 53.0069 35.711C52.7681 36.7489 52.4496 37.9466 52.2107 38.9047C51.8923 40.1024 50.9368 40.9807 49.9018 40.9807H38.5161L39.3123 37.7071H48.9463L49.424 35.8707H41.2232C40.2678 35.8707 39.7104 34.9924 40.0289 33.7947C40.1881 33.156 40.3474 32.5172 40.5066 31.7986C40.6659 31.1599 40.8251 30.4413 40.9843 29.8025C41.3028 28.6847 42.2582 27.8064 43.2137 27.8064H54.5197L53.7235 31.08H44.1691L43.771 32.5971H52.0515ZM113.12 31.08L113.996 27.8064H101.655L100.779 31.08H105.317L102.769 40.9807H106.034L108.582 31.08H113.12Z" fill="#F5333F"/>
<path d="M0.537836 42.1786C0.378596 42.8972 0.697076 44.3344 1.971 44.6538C1.971 44.6538 2.05062 44.6538 2.13024 44.6538C3.80225 44.9732 5.15579 43.9352 5.79275 43.536C9.05717 41.5399 10.57 40.3422 11.9235 39.8632C13.7548 39.2244 15.6656 39.4639 16.9396 39.7035C18.1339 40.1027 19.9651 40.8213 21.239 42.3383C22.1945 43.4561 22.911 45.2926 24.7423 48.646C25.1404 49.2848 25.7774 50.8816 27.3698 51.4406C27.3698 51.4406 27.4494 51.4406 27.529 51.4406C28.8029 51.7599 29.7584 50.722 29.9972 50.0034C30.3953 48.8057 32.2266 39.3042 31.9877 36.9888C31.9081 35.4717 31.1119 33.7152 29.5991 32.5175C29.9176 29.9625 29.4399 28.1261 28.8029 25.8106C29.9972 24.6928 30.873 23.2556 31.2711 21.5789C31.9081 19.4231 31.5896 17.1874 30.7138 15.2712C31.0323 7.3666 27.529 0.5 27.529 0.5C27.529 0.5 21.0798 4.6519 17.258 11.758C15.5064 12.9557 14.2325 14.7921 13.5955 16.9479C13.1178 18.6246 13.1974 20.3812 13.5955 21.8982C11.8439 23.575 10.57 24.9323 9.53489 27.2478C7.70363 27.4075 6.19085 28.6051 5.31503 29.8028C3.96149 31.7989 0.856316 40.981 0.537836 42.1786ZM23.3888 31.3997C22.0352 31.3198 20.6817 31.1601 19.4078 30.7609C18.1339 30.4416 16.8599 29.8826 15.6656 29.2439C15.586 28.0462 15.586 26.7687 15.6656 25.3315C16.8599 26.609 18.3727 27.647 20.1243 28.1261C21.9556 28.6051 23.7869 28.5253 25.4589 27.9664C24.7423 29.2439 24.1053 30.4416 23.3888 31.3997ZM20.0447 10.4805C20.8409 9.28286 21.7167 8.16504 22.5926 7.20691L28.4844 8.80379C28.7233 10.0813 28.9622 11.4386 29.0418 12.9557C27.9271 11.8379 26.5736 10.9596 24.9015 10.4805C23.2295 10.0015 21.5575 10.0813 20.0447 10.4805ZM24.4238 12.0774C28.4048 13.1952 30.7934 17.2673 29.6787 21.2595C28.5641 25.2517 24.5034 27.647 20.5224 26.5292C16.5415 25.4114 14.1529 21.3393 15.2675 17.3471C16.3026 13.3549 20.4428 11.0394 24.4238 12.0774ZM27.7679 37.388C28.4048 37.5477 28.7233 38.1864 28.5641 38.7453C28.4048 39.3841 27.7679 39.7035 27.2105 39.5438C26.5736 39.3841 26.2551 38.7453 26.4143 38.1864C26.5736 37.6275 27.1309 37.2283 27.7679 37.388ZM25.9366 34.1942C26.5736 34.3539 26.892 34.9927 26.7328 35.5516C26.5736 36.1903 25.9366 36.5097 25.3793 36.35C24.7423 36.1903 24.4238 35.5516 24.5831 34.9927C24.6627 34.4338 25.2996 34.0345 25.9366 34.1942ZM24.5034 39.2244C25.1404 39.3841 25.4589 40.0228 25.2996 40.5818C25.1404 41.2205 24.5034 41.5399 23.9461 41.3802C23.3091 41.2205 22.9907 40.5818 23.1499 40.0228C23.3091 39.4639 23.9461 39.0647 24.5034 39.2244ZM22.6722 36.0306C23.3091 36.1903 23.6276 36.8291 23.4684 37.388C23.3091 37.9469 22.6722 38.3461 22.1148 38.1864C21.4779 38.0267 21.1594 37.388 21.3186 36.8291C21.4779 36.2702 22.1148 35.871 22.6722 36.0306ZM7.62401 32.5973C7.70363 32.3578 8.02211 32.1183 8.26097 32.1981L10.0126 32.6772L10.4903 30.9206C10.57 30.6811 10.8884 30.4415 11.1273 30.5214L12.1624 30.7609C12.4012 30.8408 12.6401 31.1601 12.5605 31.3997L12.0031 33.2361L13.7548 33.7152C13.9936 33.795 14.2325 34.1144 14.1529 34.3539L13.8344 35.3919C13.7548 35.6314 13.4363 35.871 13.1974 35.7911L11.4458 35.312L10.9681 37.0686C10.8884 37.3081 10.57 37.5477 10.3311 37.4678L9.29603 37.2283C9.05717 37.1485 8.81831 36.8291 8.89793 36.5896L9.37565 34.833L7.70363 34.2741C7.46477 34.1942 7.22591 33.8748 7.30553 33.6353L7.62401 32.5973Z" fill="#F5333F"/>
<path d="M18.3723 42.8173C17.9742 44.2545 16.2226 45.3724 15.2671 46.4103C14.9486 44.9731 13.9932 43.1367 14.3117 41.6995C14.3117 41.5398 14.4709 41.3003 14.5505 41.1406C13.6747 41.5398 12.9581 42.3383 12.7193 43.2964C12.0823 45.7716 13.4359 48.8057 13.9136 51.201C15.506 49.3646 18.2927 47.5281 18.9296 45.053C19.1685 44.015 18.9296 43.0569 18.3723 42.2584C18.4519 42.4181 18.3723 42.6577 18.3723 42.8173Z" fill="black"/>
<path d="M23.5477 15.3506C25.777 15.9894 27.051 18.225 26.4936 20.3808C25.8567 22.6164 23.6273 23.8939 21.4776 23.335C19.3278 22.7761 17.9743 20.4606 18.5316 18.3048C19.089 16.0692 21.3183 14.7118 23.5477 15.3506Z" fill="black"/>
</g>
<defs>
<clipPath id="clip0_2429_5791">
<rect width="117" height="51" fill="white" transform="translate(0.5 0.5)"/>
</clipPath>
</defs>
</svg>
