<svg width="32" height="52" viewBox="0 0 32 52" fill="none" xmlns="http://www.w3.org/2000/svg">
<path d="M0.283442 42.1786C0.124202 42.8972 0.442681 44.3344 1.7166 44.6538C1.7166 44.6538 1.79622 44.6538 1.87584 44.6538C3.54786 44.9732 4.9014 43.9352 5.53836 43.536C8.80278 41.5399 10.3156 40.3422 11.6691 39.8632C13.5004 39.2244 15.4112 39.4639 16.6852 39.7035C17.8795 40.1027 19.7107 40.8213 20.9846 42.3383C21.9401 43.4561 22.6567 45.2926 24.4879 48.646C24.886 49.2848 25.523 50.8816 27.1154 51.4406C27.1154 51.4406 27.195 51.4406 27.2746 51.4406C28.5485 51.7599 29.504 50.722 29.7428 50.0034C30.1409 48.8057 31.9722 39.3042 31.7333 36.9888C31.6537 35.4717 30.8575 33.7152 29.3447 32.5175C29.6632 29.9625 29.1855 28.1261 28.5485 25.8106C29.7428 24.6928 30.6186 23.2556 31.0167 21.5789C31.6537 19.4231 31.3352 17.1874 30.4594 15.2712C30.7779 7.3666 27.2746 0.5 27.2746 0.5C27.2746 0.5 20.8254 4.6519 17.0036 11.758C15.252 12.9557 13.9781 14.7921 13.3411 16.9479C12.8634 18.6246 12.943 20.3812 13.3411 21.8982C11.5895 23.575 10.3156 24.9323 9.2805 27.2478C7.44924 27.4075 5.93646 28.6051 5.06064 29.8028C3.7071 31.7989 0.601921 40.981 0.283442 42.1786ZM23.1344 31.3997C21.7808 31.3198 20.4273 31.1601 19.1534 30.7609C17.8795 30.4416 16.6055 29.8826 15.4112 29.2439C15.3316 28.0462 15.3316 26.7687 15.4112 25.3315C16.6055 26.609 18.1183 27.647 19.87 28.1261C21.7012 28.6051 23.5325 28.5253 25.2045 27.9664C24.4879 29.2439 23.851 30.4416 23.1344 31.3997ZM19.7903 10.4805C20.5865 9.28286 21.4624 8.16504 22.3382 7.20691L28.23 8.80379C28.4689 10.0813 28.7078 11.4386 28.7874 12.9557C27.6727 11.8379 26.3192 10.9596 24.6472 10.4805C22.9751 10.0015 21.3031 10.0813 19.7903 10.4805ZM24.1694 12.0774C28.1504 13.1952 30.539 17.2673 29.4243 21.2595C28.3097 25.2517 24.2491 27.647 20.2681 26.5292C16.2871 25.4114 13.8985 21.3393 15.0131 17.3471C16.0482 13.3549 20.1884 11.0394 24.1694 12.0774ZM27.5135 37.388C28.1504 37.5477 28.4689 38.1864 28.3097 38.7453C28.1504 39.3841 27.5135 39.7035 26.9561 39.5438C26.3192 39.3841 26.0007 38.7453 26.1599 38.1864C26.3192 37.6275 26.8765 37.2283 27.5135 37.388ZM25.6822 34.1942C26.3192 34.3539 26.6377 34.9927 26.4784 35.5516C26.3192 36.1903 25.6822 36.5097 25.1249 36.35C24.4879 36.1903 24.1694 35.5516 24.3287 34.9927C24.4083 34.4338 25.0453 34.0345 25.6822 34.1942ZM24.2491 39.2244C24.886 39.3841 25.2045 40.0228 25.0453 40.5818C24.886 41.2205 24.2491 41.5399 23.6917 41.3802C23.0548 41.2205 22.7363 40.5818 22.8955 40.0228C23.0548 39.4639 23.6917 39.0647 24.2491 39.2244ZM22.4178 36.0306C23.0548 36.1903 23.3732 36.8291 23.214 37.388C23.0548 37.9469 22.4178 38.3461 21.8605 38.1864C21.2235 38.0267 20.905 37.388 21.0643 36.8291C21.2235 36.2702 21.8605 35.871 22.4178 36.0306ZM7.36962 32.5973C7.44924 32.3578 7.76772 32.1183 8.00658 32.1981L9.75822 32.6772L10.2359 30.9206C10.3156 30.6811 10.634 30.4415 10.8729 30.5214L11.908 30.7609C12.1468 30.8408 12.3857 31.1601 12.3061 31.3997L11.7487 33.2361L13.5004 33.7152C13.7392 33.795 13.9781 34.1144 13.8985 34.3539L13.58 35.3919C13.5004 35.6314 13.1819 35.871 12.943 35.7911L11.1914 35.312L10.7137 37.0686C10.634 37.3081 10.3156 37.5477 10.0767 37.4678L9.04164 37.2283C8.80278 37.1485 8.56392 36.8291 8.64354 36.5896L9.12126 34.833L7.44924 34.2741C7.21038 34.1942 6.97152 33.8748 7.05114 33.6353L7.36962 32.5973Z" fill="#F5333F"/>
<path d="M18.1182 42.8173C17.7201 44.2545 15.9684 45.3724 15.013 46.4103C14.6945 44.9731 13.7391 43.1367 14.0575 41.6995C14.0575 41.5398 14.2168 41.3003 14.2964 41.1406C13.4206 41.5398 12.704 42.3383 12.4651 43.2964C11.8282 45.7716 13.1817 48.8057 13.6594 51.201C15.2518 49.3646 18.0385 47.5281 18.6755 45.053C18.9144 44.015 18.6755 43.0569 18.1182 42.2584C18.1978 42.4181 18.1182 42.6577 18.1182 42.8173Z" fill="black"/>
<path d="M23.293 15.3511C25.5224 15.9898 26.7963 18.2255 26.239 20.3813C25.602 22.6169 23.3727 23.8944 21.2229 23.3355C19.0732 22.7766 17.7196 20.4611 18.277 18.3053C18.8343 16.0697 21.0637 14.7123 23.293 15.3511Z" fill="black"/>
</svg>
